<svg width="6" height="6" viewBox="0 0 6 6" fill="none" xmlns="http://www.w3.org/2000/svg">
<path d="M3.066 5.268C2.63667 5.268 2.24467 5.16533 1.89 4.96C1.54467 4.74533 1.26467 4.46067 1.05 4.106C0.844667 3.75133 0.742 3.364 0.742 2.944C0.742 2.51467 0.844667 2.12733 1.05 1.782C1.26467 1.42733 1.54467 1.14733 1.89 0.942C2.24467 0.727333 2.63667 0.62 3.066 0.62C3.49533 0.62 3.88267 0.727333 4.228 0.942C4.58267 1.14733 4.86267 1.42733 5.068 1.782C5.28267 2.12733 5.39 2.51467 5.39 2.944C5.39 3.364 5.28267 3.75133 5.068 4.106C4.86267 4.46067 4.58267 4.74533 4.228 4.96C3.88267 5.16533 3.49533 5.268 3.066 5.268Z" fill="#DECDFF"/>
</svg>
