<svg width="24" height="24" viewBox="0 0 24 24" fill="none" xmlns="http://www.w3.org/2000/svg">
<path d="M14.9998 3.75C13.4677 3.75118 11.966 4.17857 10.6629 4.98437C9.35972 5.79017 8.30642 6.94262 7.62078 8.31281C6.80512 8.19385 5.97369 8.24424 5.17836 8.46082C4.38303 8.67741 3.64086 9.05555 2.99814 9.57166C2.35542 10.0878 1.82594 10.7308 1.44272 11.4606C1.0595 12.1904 0.83077 12.9913 0.770789 13.8134C0.710808 14.6355 0.820866 15.4612 1.0941 16.2388C1.36733 17.0165 1.79787 17.7296 2.35888 18.3335C2.91988 18.9375 3.5993 19.4193 4.35477 19.749C5.11024 20.0788 5.92555 20.2493 6.74984 20.25H14.9998C17.1879 20.25 19.2863 19.3808 20.8335 17.8336C22.3807 16.2865 23.2498 14.188 23.2498 12C23.2498 9.81196 22.3807 7.71354 20.8335 6.16637C19.2863 4.61919 17.1879 3.75 14.9998 3.75ZM14.9998 18.75H6.74984C5.55637 18.75 4.41178 18.2759 3.56786 17.432C2.72395 16.5881 2.24984 15.4435 2.24984 14.25C2.24984 13.0565 2.72395 11.9119 3.56786 11.068C4.41178 10.2241 5.55637 9.75 6.74984 9.75C6.85297 9.75 6.95609 9.75 7.05828 9.76031C6.85318 10.4892 6.74939 11.2428 6.74984 12C6.74984 12.1989 6.82886 12.3897 6.96951 12.5303C7.11017 12.671 7.30093 12.75 7.49984 12.75C7.69876 12.75 7.88952 12.671 8.03017 12.5303C8.17083 12.3897 8.24984 12.1989 8.24984 12C8.24984 10.665 8.64572 9.35993 9.38742 8.2499C10.1291 7.13987 11.1833 6.2747 12.4167 5.76381C13.6501 5.25292 15.0073 5.11925 16.3167 5.3797C17.6261 5.64015 18.8288 6.28302 19.7728 7.22703C20.7168 8.17103 21.3597 9.37377 21.6201 10.6831C21.8806 11.9925 21.7469 13.3497 21.236 14.5831C20.7251 15.8165 19.86 16.8707 18.7499 17.6124C17.6399 18.3541 16.3349 18.75 14.9998 18.75ZM18.5305 9.96937C18.6002 10.039 18.6555 10.1217 18.6933 10.2128C18.731 10.3038 18.7504 10.4014 18.7504 10.5C18.7504 10.5986 18.731 10.6962 18.6933 10.7872C18.6555 10.8783 18.6002 10.961 18.5305 11.0306L14.0305 15.5306C13.9608 15.6004 13.8781 15.6557 13.7871 15.6934C13.696 15.7312 13.5984 15.7506 13.4998 15.7506C13.4013 15.7506 13.3037 15.7312 13.2126 15.6934C13.1216 15.6557 13.0389 15.6004 12.9692 15.5306L10.7192 13.2806C10.5785 13.1399 10.4994 12.949 10.4994 12.75C10.4994 12.551 10.5785 12.3601 10.7192 12.2194C10.86 12.0786 11.0508 11.9996 11.2498 11.9996C11.4489 11.9996 11.6397 12.0786 11.7805 12.2194L13.4998 13.9397L17.4692 9.96937C17.5389 9.89964 17.6216 9.84432 17.7126 9.80658C17.8037 9.76884 17.9013 9.74941 17.9998 9.74941C18.0984 9.74941 18.196 9.76884 18.2871 9.80658C18.3781 9.84432 18.4608 9.89964 18.5305 9.96937Z" fill="#DECDFF"/>
</svg>
