<svg width="42" height="42" viewBox="0 0 42 42" fill="none" xmlns="http://www.w3.org/2000/svg">
<g clip-path="url(#clip0_268_3876)">
<path d="M12.2485 30.874V29.1593C12.2485 24.4243 16.087 20.5858 20.822 20.5858C25.557 20.5858 29.3955 24.4243 29.3955 29.1593V30.874" stroke="#9D74FF" stroke-width="1.95966" stroke-linecap="round" stroke-linejoin="round"/>
<path d="M1.96021 30.8803V29.1656C1.96021 26.3245 4.2633 24.0215 7.1043 24.0215" stroke="#9D74FF" stroke-width="1.95966" stroke-linecap="round" stroke-linejoin="round"/>
<path d="M20.8216 20.5874C23.6627 20.5874 25.9657 18.2844 25.9657 15.4433C25.9657 12.6023 23.6627 10.2992 20.8216 10.2992C17.9805 10.2992 15.6775 12.6023 15.6775 15.4433C15.6775 18.2844 17.9805 20.5874 20.8216 20.5874Z" stroke="#9D74FF" stroke-width="2.93948" stroke-linecap="round" stroke-linejoin="round"/>
<path d="M7.1042 24.018C8.99821 24.018 10.5336 22.4826 10.5336 20.5886C10.5336 18.6945 8.99821 17.1592 7.1042 17.1592C5.2102 17.1592 3.6748 18.6945 3.6748 20.5886C3.6748 22.4826 5.2102 24.018 7.1042 24.018Z" stroke="#9D74FF" stroke-width="1.95966" stroke-linecap="round" stroke-linejoin="round"/>
</g>
<defs>
<clipPath id="clip0_268_3876">
<rect width="41.1528" height="41.1527" fill="white" transform="translate(0.246826 0.0126953)"/>
</clipPath>
</defs>
</svg>
