<svg width="20" height="20" viewBox="0 0 20 20" fill="none" xmlns="http://www.w3.org/2000/svg">
<path d="M0 2.5C0 1.12 1.12 0 2.5 0L8.75 0l0 5c0 0.69 0.56 1.25 1.25 1.25l5 0 0 5.625-8.125 0c-1.38 0-2.5 1.12-2.5 2.5l0 5.625-1.875 0c-1.38 0-2.5-1.12-2.5-2.5L0 2.5zm15 2.5l-5 0L10 0 15 5zM7.812 13.75l0.625 0c0.863 0 1.563 0.7 1.563 1.563l0 0.312c0 0.344-0.281 0.625-0.625 0.625s-0.625-0.281-0.625-0.625l0-0.312c0-0.172-0.141-0.313-0.313-0.313l-0.625 0c-0.172 0-0.312 0.141-0.312 0.313l0 3.125c0 0.172 0.14 0.312 0.312 0.312l0.625 0c0.172 0 0.313-0.14 0.313-0.312l0-0.313c0-0.344 0.281-0.625 0.625-0.625s0.625 0.281 0.625 0.625l0 0.313c0 0.863-0.7 1.562-1.563 1.562l-0.625 0c-0.863 0-1.562-0.699-1.562-1.562l0-3.125c0-0.863 0.699-1.563 1.562-1.563zm5.207 0l1.363 0c0.344 0 0.625 0.281 0.625 0.625s-0.281 0.625-0.625 0.625l-1.363 0c-0.281 0-0.512 0.23-0.512 0.512c0 0.203 0.117 0.387 0.305 0.469l1.461 0.648c0.637 0.281 1.047 0.914 1.047 1.609c0 0.973-0.789 1.762-1.762 1.762l-1.676 0c-0.344 0-0.625-0.281-0.625-0.625s0.281-0.625 0.625-0.625l1.676 0c0.281 0 0.512-0.23 0.512-0.512c0-0.203-0.117-0.387-0.305-0.469l-1.461-0.648c-0.637-0.281-1.047-0.914-1.047-1.609c0-0.973 0.789-1.762 1.762-1.762zm3.868 0c0.344 0 0.625 0.281 0.625 0.625l0 1.234c0 0.899 0.215 1.782 0.625 2.579c0.41-0.793 0.625-1.676 0.625-2.579l0-1.234c0-0.344 0.281-0.625 0.625-0.625s0.625 0.281 0.625 0.625l0 1.234c0 1.356-0.402 2.684-1.156 3.813l-0.199 0.301c-0.117 0.176-0.313 0.277-0.52 0.277s-0.403-0.105-0.52-0.277l-0.199-0.301c-0.754-1.129-1.156-2.457-1.156-3.813l0-1.234c0-0.344 0.281-0.625 0.625-0.625z" fill="#AC92FF"/>
</svg>