<svg width="20" height="20" viewBox="0 0 20 20" fill="none" xmlns="http://www.w3.org/2000/svg">
<path d="M17.5 5L12.5 0H4.16667C3.24583 0 2.5 0.746192 2.5 1.66667V18.3333C2.5 19.2538 3.24583 20 4.16667 20H15.8333C16.7542 20 17.5 19.2538 17.5 18.3333V5Z" fill="#AC92FF"/>
<path d="M12.5 0V3.33333C12.5 4.25417 13.2458 5 14.1667 5H17.5L12.5 0Z" fill="#C4B3FF"/>
<path d="M5.83333 7.5V15.8333H14.1667V7.5H5.83333ZM13.3333 10H10.4167V8.33333H13.3333V10ZM10.4167 10.8333H13.3333V12.5H10.4167V10.8333ZM9.58333 12.5H6.66667V10.8333H9.58333V12.5ZM9.58333 8.33333V10H6.66667V8.33333H9.58333ZM6.66667 13.3333H9.58333V15H6.66667V13.3333ZM10.4167 15V13.3333H13.3333V15H10.4167Z" fill="#0F0E14"/>
</svg>