<svg width="25" height="24" viewBox="0 0 25 24" fill="none" xmlns="http://www.w3.org/2000/svg">
<g clip-path="url(#clip0_260_1694)">
<path d="M5.81891 14.5036L4.9835 17.6223L1.93011 17.6869C1.01759 15.9943 0.5 14.0579 0.5 12.0001C0.5 10.0102 0.983938 8.13368 1.84175 6.48138H1.84241L4.56078 6.97976L5.75159 9.68182C5.50236 10.4084 5.36652 11.1884 5.36652 12.0001C5.36661 12.8809 5.52617 13.7249 5.81891 14.5036Z" fill="#FBBB00"/>
<path d="M24.2903 9.7583C24.4281 10.4842 24.5 11.2339 24.5 12.0001C24.5 12.8592 24.4097 13.6972 24.2376 14.5056C23.6534 17.2563 22.127 19.6583 20.0125 21.3581L20.0119 21.3574L16.588 21.1827L16.1034 18.1576C17.5064 17.3348 18.6029 16.0471 19.1805 14.5056H12.7638V9.7583H19.2741H24.2903Z" fill="#518EF8"/>
<path d="M20.0119 21.3574L20.0125 21.3581C17.9561 23.011 15.3437 24.0001 12.5 24.0001C7.93012 24.0001 3.95694 21.4458 1.93011 17.6869L5.81891 14.5036C6.8323 17.2082 9.44132 19.1335 12.5 19.1335C13.8147 19.1335 15.0464 18.7781 16.1033 18.1576L20.0119 21.3574Z" fill="#28B446"/>
<path d="M20.1595 2.76269L16.2721 5.94531C15.1782 5.26159 13.8852 4.86662 12.5 4.86662C9.37206 4.86662 6.71425 6.88023 5.75163 9.68181L1.84239 6.48137H1.84174C3.83889 2.63083 7.86217 6.10352e-05 12.5 6.10352e-05C15.4116 6.10352e-05 18.0813 1.03722 20.1595 2.76269Z" fill="#F14336"/>
</g>
<defs>
<clipPath id="clip0_260_1694">
<rect width="24" height="24" fill="white" transform="translate(0.5 6.10352e-05)"/>
</clipPath>
</defs>
</svg>
