<svg width="20" height="20" viewBox="0 0 20 20" xmlns="http://www.w3.org/2000/svg">
<g transform="scale(0.008)">
    <path d="M1136.4,0H170.4C79.6,0,0,79.5,0,170.5v2159.1c0,90.9,79.5,170.5,170.5,170.5h1477.3
        c90.9,0,170.5-79.5,170.5-170.5V681.8l-397.7-284.1L1136.4,0z" fill="#AC92FF"/>
    <path d="M454.5,1136.4v909.1c0,46.9,38.3,85.2,85.2,85.2h738.6c46.9,0,85.2-38.3,85.2-85.2v-909.1
        c0-46.9-38.3-85.2-85.2-85.2H539.7C492.8,1051.2,454.5,1089.5,454.5,1136.4z M568.2,1193.2h681.8v795.5H568.2V1193.2z" fill="#0F0E14"/>
    <path d="M1136.4,0v511.4c0,90.9,79.5,170.4,170.4,170.4h511.4L1136.4,0z" fill="#C4B3FF"/>
</g>
</svg>