<svg width="20" height="20" viewBox="0 0 20 20" fill="none" xmlns="http://www.w3.org/2000/svg">
<path d="M0 5a2.5 2.5 0 0 1 2.5-2.5h15A2.5 2.5 0 0 1 20 5v10a2.5 2.5 0 0 1-2.5 2.5h-15A2.5 2.5 0 0 1 0 15V5zm14.375 1.25a.625.625 0 0 0-.625.625v4.741l-1.433-1.433a.625.625 0 1 0-.884.884l2.5 2.5a.625.625 0 0 0 .884 0l2.5-2.5a.625.625 0 0 0-.884-.884L15 11.616V6.875a.625.625 0 0 0-.625-.625zM4.45 8.763h.07l1.785 4.049h.968l1.775-4.05h.07V13.75h1.341V6.251H8.963L6.824 11.119h-.049L4.637 6.251H3.137V13.75h1.313V8.763z" fill="#AC92FF"/>
</svg>