<svg width="20" height="20" viewBox="0 0 20 20" xmlns="http://www.w3.org/2000/svg">
<g transform="scale(0.163)">
    <path d="M0.38,12.11L69.16,0.09L69.69,0v0.54v114.96v0.53l-0.53-0.09L0.38,104.63L0,104.57v-0.38V12.55v-0.38L0.38,12.11 
        L0.38,12.11z" fill="#C4B3FF"/>
    <path d="M76.29,17.01h43.79c0.77,0,1.47,0.32,1.98,0.82c0.51,0.51,0.82,1.21,0.82,1.98v76.75c0,0.78-0.32,1.5-0.84,2.01 
        s-1.23,0.84-2.01,0.84H76.29h-0.45v-0.45v-9.16v-0.45h0.45h33.62v-6.15H76.29h-0.45v-0.45v-7.17V75.1h0.45h33.62v-6.15H76.29h-0.45 
        v-0.45v-8.49v-0.88l0.71,0.51c1.32,0.94,2.79,1.68,4.36,2.18c1.52,0.48,3.14,0.74,4.82,0.74c4.38,0,8.34-1.78,11.21-4.64 
        c2.82-2.82,4.59-6.7,4.64-11H85.83h-0.45v-0.45V30.86c-1.56,0.03-3.06,0.29-4.47,0.74c-1.57,0.5-3.04,1.24-4.36,2.18l-0.71,0.51 
        v-0.88V17.46v-0.45H76.29L76.29,17.01z" fill="#AC92FF"/>
    <path d="M99.26,32.75c-2.76-2.77-6.54-4.52-10.73-4.65v15.48h15.36C103.79,39.35,102.04,35.53,99.26,32.75L99.26,32.75z" fill="#C4B3FF"/>
    <path d="M30.91,80.41V63.97v-0.45h0.45h6.22c2.41,0,4.56-0.35,6.45-1.05c1.87-0.7,3.49-1.75,4.86-3.15c1.37-1.4,2.39-3.04,3.08-4.91 
        c0.69-1.88,1.03-4,1.03-6.37c0-1.61-0.16-3.12-0.48-4.55c-0.32-1.42-0.79-2.76-1.43-4.01c-0.63-1.25-1.4-2.36-2.29-3.32 
        c-0.89-0.96-1.91-1.78-3.06-2.45c-2.31-1.35-4.97-2.03-7.98-2.03H22.07v48.75H30.91L30.91,80.41z" fill="#0F0E14"/>
    <path d="M37.76,55.2h-6.39h-0.45v-0.45V40.43v-0.45h0.45h6.51l0.01,0c0.95,0.01,1.81,0.21,2.57,0.59c0.76,0.38,1.41,0.95,1.96,1.71h0 
        c0.54,0.74,0.95,1.6,1.21,2.58c0.27,0.97,0.4,2.05,0.4,3.24c0,1.1-0.13,2.08-0.39,2.94h0c-0.27,0.88-0.67,1.63-1.21,2.26 
        c-0.54,0.63-1.21,1.11-2,1.43C39.65,55.05,38.76,55.2,37.76,55.2L37.76,55.2z" fill="#0F0E14"/>
</g>
</svg>