<svg xmlns="http://www.w3.org/2000/svg" width="128" height="128" viewBox="0 0 128 128" version="1.1"><path d="M 63.868 28.054 C 62.994 28.543, 59.601 32.443, 56.327 36.722 C 41.464 56.146, 36.456 62.593, 35.273 63.821 C 30.190 69.099, 36.960 69.768, 51.250 65.400 C 52.819 64.921, 53.001 65.726, 53.006 73.183 C 53.016 88.200, 56.481 93.138, 65.952 91.632 C 72.532 90.585, 74 87.541, 74 74.944 C 74 68.925, 74.112 64.002, 74.250 64.005 C 74.388 64.007, 77.200 65.121, 80.500 66.481 C 86.558 68.976, 93.408 69.767, 94.445 68.089 C 94.754 67.588, 90.972 61.771, 86.040 55.162 C 81.107 48.553, 74.797 39.759, 72.016 35.619 C 66.261 27.053, 66.034 26.842, 63.868 28.054" stroke="none" fill="#f7f4fa" fill-rule="evenodd"/><path d="M 0 64.007 L 0 128.015 64.250 127.757 L 128.500 127.500 128.757 63.750 L 129.015 0 64.507 0 L 0 0 0 64.007 M 0.471 64.500 C 0.471 99.700, 0.597 113.955, 0.750 96.178 C 0.903 78.400, 0.903 49.600, 0.749 32.178 C 0.596 14.755, 0.471 29.300, 0.471 64.500 M 63.868 28.054 C 62.994 28.543, 59.601 32.443, 56.327 36.722 C 41.464 56.146, 36.456 62.593, 35.273 63.821 C 30.190 69.099, 36.960 69.768, 51.250 65.400 C 52.819 64.921, 53.001 65.726, 53.006 73.183 C 53.016 88.200, 56.481 93.138, 65.952 91.632 C 72.532 90.585, 74 87.541, 74 74.944 C 74 68.925, 74.112 64.002, 74.250 64.005 C 74.388 64.007, 77.200 65.121, 80.500 66.481 C 86.558 68.976, 93.408 69.767, 94.445 68.089 C 94.754 67.588, 90.972 61.771, 86.040 55.162 C 81.107 48.553, 74.797 39.759, 72.016 35.619 C 66.261 27.053, 66.034 26.842, 63.868 28.054" stroke="none" fill="#673d98" fill-rule="evenodd"/></svg>