<?xml version="1.0" encoding="UTF-8"?>
<svg version="1.1" xmlns="http://www.w3.org/2000/svg" width="128" height="128">
<path d="M0 0 C1.04438232 0.00572021 2.08876465 0.01144043 3.16479492 0.01733398 C21.70942382 0.44136623 36.47583263 8.1147571 49.3125 21.5 C59.61413463 34.07080561 64.91699292 47.94083557 64.8125 64.1875 C64.80677979 65.23188232 64.80105957 66.27626465 64.79516602 67.35229492 C64.37113377 85.89692382 56.6977429 100.66333263 43.3125 113.5 C30.74169439 123.80163463 16.87166443 129.10449292 0.625 129 C-0.41938232 128.99427979 -1.46376465 128.98855957 -2.53979492 128.98266602 C-21.08442382 128.55863377 -35.85083263 120.8852429 -48.6875 107.5 C-58.98913463 94.92919439 -64.29199292 81.05916443 -64.1875 64.8125 C-64.18177979 63.76811768 -64.17605957 62.72373535 -64.17016602 61.64770508 C-63.74613377 43.10307618 -56.0727429 28.33666737 -42.6875 15.5 C-30.11669439 5.19836537 -16.24666443 -0.10449292 0 0 Z M10.3125 6.5 C10.66441406 6.96148438 11.01632813 7.42296875 11.37890625 7.8984375 C22.62509018 22.75632018 22.62509018 22.75632018 25.3125 28.5 C30.96163063 26.84292168 35.57550637 25.02237988 40.3125 21.5 C33.17356454 13.40920648 23.62845291 9.16927244 13.3125 6.5 C12.3225 6.5 11.3325 6.5 10.3125 6.5 Z M-26.6875 11.5 C-31.48730758 14.32559367 -35.83647028 17.46558791 -39.6875 21.5 C-34.7874919 24.83455096 -30.48105528 27.17231025 -24.6875 28.5 C-24.06875 27.35724609 -24.06875 27.35724609 -23.4375 26.19140625 C-19.52001495 19.18715285 -15.28161572 13.2539476 -9.6875 7.5 C-15.30602167 5.62715944 -21.44536515 9.20866174 -26.6875 11.5 Z M-6.6875 11.125 C-12.03061112 16.4903278 -15.75890041 23.07705146 -19.6875 29.5 C-13.97675778 33.30716148 -9.86704789 32.5 -2.6875 32.5 C-2.6875 24.58 -2.6875 16.66 -2.6875 8.5 C-4.22645466 8.39024923 -4.22645466 8.39024923 -6.6875 11.125 Z M3.3125 8.5 C3.3125 16.42 3.3125 24.34 3.3125 32.5 C10.42346261 32.69400732 10.42346261 32.69400732 16.875 31.5 C18.009375 31.17 19.14375 30.84 20.3125 30.5 C16.34014281 21.56219632 10.96005392 14.61804314 3.3125 8.5 Z M-44.6875 25.5 C-52.76238777 37.37483495 -57.47765543 47.03168228 -58.6875 61.5 C-54.54168113 61.52886751 -50.39588784 61.54675327 -46.25 61.5625 C-45.06599609 61.57087891 -43.88199219 61.57925781 -42.66210938 61.58789062 C-41.53740234 61.59111328 -40.41269531 61.59433594 -39.25390625 61.59765625 C-37.69071655 61.60551147 -37.69071655 61.60551147 -36.09594727 61.61352539 C-33.73621253 61.77305556 -33.73621253 61.77305556 -32.6875 60.5 C-32.35827125 58.23430763 -32.07519286 55.96186715 -31.8125 53.6875 C-30.96941031 46.78231274 -29.51363485 40.22349648 -27.6875 33.5 C-33.2975 30.86 -38.9075 28.22 -44.6875 25.5 Z M40.71484375 27.25 C39.99619141 27.6109375 39.27753906 27.971875 38.53710938 28.34375 C37.78236328 28.7253125 37.02761719 29.106875 36.25 29.5 C35.49138672 29.8815625 34.73277344 30.263125 33.95117188 30.65625 C32.07071941 31.6023896 30.19149524 32.55096971 28.3125 33.5 C28.58964844 34.61117187 28.86679688 35.72234375 29.15234375 36.8671875 C32.69416743 51.32706061 32.69416743 51.32706061 33.13671875 58.8125 C33.13697036 60.53448398 33.13697036 60.53448398 34.3125 61.5 C36.16619611 61.58737645 38.02317541 61.60698153 39.87890625 61.59765625 C41.00361328 61.59443359 42.12832031 61.59121094 43.28710938 61.58789062 C44.47111328 61.57951172 45.65511719 61.57113281 46.875 61.5625 C48.06287109 61.55798828 49.25074219 61.55347656 50.47460938 61.54882812 C53.42062226 61.53699675 56.36653681 61.52051287 59.3125 61.5 C58.27655279 47.71619494 53.85579924 36.39869483 45.3125 25.5 C43.5990706 25.5 42.22502421 26.48896418 40.71484375 27.25 Z M-22.6875 35.5 C-25.71915154 44.39936421 -27.27472581 52.10938719 -27.6875 61.5 C-19.4375 61.5 -11.1875 61.5 -2.6875 61.5 C-2.6875 53.91 -2.6875 46.32 -2.6875 38.5 C-9.2875 37.51 -15.8875 36.52 -22.6875 35.5 Z M17.1796875 36.15625 C16.45378418 36.27806641 15.72788086 36.39988281 14.97998047 36.52539062 C14.05846191 36.68201172 13.13694336 36.83863281 12.1875 37 C9.25875 37.495 6.33 37.99 3.3125 38.5 C3.3125 46.09 3.3125 53.68 3.3125 61.5 C11.5625 61.5 19.8125 61.5 28.3125 61.5 C27.90351005 52.19547865 26.40201968 44.27998384 23.3125 35.5 C21.18518102 35.5 19.27759391 35.80167427 17.1796875 36.15625 Z M-58.6875 67.5 C-57.72027622 80.53620938 -53.90955846 91.21650325 -45.6875 101.5 C-41.79141502 100.01095825 -38.09652982 98.25621287 -34.375 96.375 C-32.77205078 95.56675781 -32.77205078 95.56675781 -31.13671875 94.7421875 C-30.32847656 94.33226563 -29.52023438 93.92234375 -28.6875 93.5 C-28.80867188 92.95214844 -28.92984375 92.40429688 -29.0546875 91.83984375 C-30.47946657 85.09954275 -31.39656846 78.36134272 -32.22265625 71.52734375 C-32.3623152 68.62798539 -32.3623152 68.62798539 -33.6875 67.5 C-35.54119611 67.41262355 -37.39817541 67.39301847 -39.25390625 67.40234375 C-40.37861328 67.40556641 -41.50332031 67.40878906 -42.66210938 67.41210938 C-44.43811523 67.42467773 -44.43811523 67.42467773 -46.25 67.4375 C-47.43787109 67.44201172 -48.62574219 67.44652344 -49.84960938 67.45117188 C-52.79562226 67.46300325 -55.74153681 67.47948713 -58.6875 67.5 Z M-27.6875 67.5 C-27.24529513 79.32385581 -27.24529513 79.32385581 -23.6875 90.5 C-20.6007509 91.52891637 -19.54815264 91.48947742 -16.45703125 90.94140625 C-15.73362549 90.81709229 -15.01021973 90.69277832 -14.26489258 90.56469727 C-13.35247803 90.39897217 -12.44006348 90.23324707 -11.5 90.0625 C-8.591875 89.546875 -5.68375 89.03125 -2.6875 88.5 C-2.6875 81.57 -2.6875 74.64 -2.6875 67.5 C-10.9375 67.5 -19.1875 67.5 -27.6875 67.5 Z M3.3125 67.5 C3.3125 74.43 3.3125 81.36 3.3125 88.5 C9.9125 89.49 16.5125 90.48 23.3125 91.5 C26.01070667 85.25060189 26.01070667 85.25060189 27.5 78.9375 C27.73783203 77.60525391 27.73783203 77.60525391 27.98046875 76.24609375 C28.43253614 72.96824613 28.43253614 72.96824613 28.3125 67.5 C20.0625 67.5 11.8125 67.5 3.3125 67.5 Z M33.3125 68.5 C32.95834255 70.80648759 32.65503528 73.12084449 32.375 75.4375 C31.61419738 81.52464827 30.61137818 87.50203073 29.3125 93.5 C31.71943578 94.89506477 34.13548799 96.26569383 36.5625 97.625 C37.24441406 98.02332031 37.92632812 98.42164062 38.62890625 98.83203125 C42.40227653 101.03908607 42.40227653 101.03908607 46.609375 101.015625 C55.79902484 92.83767973 58.37391808 79.13669099 59.3125 67.5 C55.16668113 67.47113249 51.02088784 67.45324673 46.875 67.4375 C45.69099609 67.42912109 44.50699219 67.42074219 43.28710938 67.41210938 C42.16240234 67.40888672 41.03769531 67.40566406 39.87890625 67.40234375 C38.83677979 67.39710693 37.79465332 67.39187012 36.72094727 67.38647461 C34.36121253 67.22694444 34.36121253 67.22694444 33.3125 68.5 Z M3.3125 93.5 C3.3125 102.41 3.3125 111.32 3.3125 120.5 C8.49975059 116.05378521 11.49934459 113.31566135 15.125 107.9375 C15.50591797 107.38642578 15.88683594 106.83535156 16.27929688 106.26757812 C18.40488268 103.12945408 20.05419689 100.07517867 21.3125 96.5 C18.87568413 95.99645133 16.43814561 95.49703244 14 95 C13.30970703 94.85691406 12.61941406 94.71382813 11.90820312 94.56640625 C8.98725227 93.97374956 6.30141878 93.5 3.3125 93.5 Z M-13.375 95 C-14.07689453 95.14308594 -14.77878906 95.28617187 -15.50195312 95.43359375 C-17.23100175 95.78646082 -18.95932353 96.14288604 -20.6875 96.5 C-16.39372686 106.20227584 -11.00338511 113.84729191 -2.6875 120.5 C-2.6875 111.59 -2.6875 102.68 -2.6875 93.5 C-6.36834338 93.5 -9.78917365 94.25671947 -13.375 95 Z M-34.3125 102 C-34.92351563 102.33386719 -35.53453125 102.66773437 -36.1640625 103.01171875 C-37.67391801 103.83742098 -39.18097848 104.66823037 -40.6875 105.5 C-39.18325164 109.79785245 -36.0026561 111.68041702 -32.3125 114 C-31.69270264 114.39364746 -31.07290527 114.78729492 -30.43432617 115.19287109 C-24.89722767 118.5886946 -19.11068828 121.27949079 -12.6875 122.5 C-11.6975 122.17 -10.7075 121.84 -9.6875 121.5 C-10.1721875 121.01273438 -10.656875 120.52546875 -11.15625 120.0234375 C-17.33107767 113.49236977 -21.48081347 106.36516126 -25.6875 98.5 C-28.94664119 98.5 -31.52080149 100.45502155 -34.3125 102 Z M26.3125 98.5 C25.9721875 99.17804688 25.631875 99.85609375 25.28125 100.5546875 C22.07089059 106.71926062 18.510014 112.07816158 14.046875 117.40625 C12.18051017 119.58574483 12.18051017 119.58574483 10.3125 122.5 C22.43417913 120.9445633 32.11514617 115.35026665 41.3125 107.5 C40.59884361 104.22987808 40.59884361 104.22987808 37.40625 102.89453125 C36.2203125 102.37246094 35.034375 101.85039063 33.8125 101.3125 C32.6265625 100.78269531 31.440625 100.25289063 30.21875 99.70703125 C27.68307003 98.43607376 27.68307003 98.43607376 26.3125 98.5 Z " fill="#520CFF" transform="translate(63.6875,-0.5)"/>
</svg>
