<?xml version="1.0" encoding="UTF-8"?>
<svg version="1.1" xmlns="http://www.w3.org/2000/svg" width="128" height="128">
<path d="M0 0 C3.77803562 0.00535822 7.55595238 0.00003084 11.33398438 -0.00634766 C49.66681262 -0.0188349 49.66681262 -0.0188349 56.37304688 5.41552734 C64.32097094 14.0296069 62.9736294 28.20105229 62.97241211 39.11889648 C62.97458697 41.29544997 62.99275872 43.47148575 63.01171875 45.64794922 C63.11050975 69.81961631 63.11050975 69.81961631 56.78710938 78.13037109 C47.3376455 84.90377356 33.1544072 83.43279526 22.03710938 83.39599609 C20.56608008 83.39734913 19.09505123 83.39929491 17.62402344 83.40179443 C14.56506017 83.40471577 11.50621498 83.40054584 8.44726562 83.39111328 C4.56803989 83.37972055 0.68909112 83.38629628 -3.19012451 83.39825821 C-6.22056078 83.40555854 -9.25093367 83.40315185 -12.28137207 83.39800262 C-13.71000198 83.39668859 -15.13863805 83.39823287 -16.56726074 83.40296173 C-41.76629545 83.46811161 -41.76629545 83.46811161 -49.21289062 78.13037109 C-56.45860578 68.60743117 -55.54205371 55.23041214 -55.47363281 43.76464844 C-55.46290064 41.6323607 -55.47360404 39.50091499 -55.48632812 37.36865234 C-55.51240391 12.95484382 -55.51240391 12.95484382 -49.21289062 6.13037109 C-36.87274508 -3.58421157 -14.82626013 -0.02503135 0 0 Z M-8.21289062 25.13037109 C-8.21289062 36.02037109 -8.21289062 46.91037109 -8.21289062 58.13037109 C-2.31103648 55.76962943 3.01312309 52.75498174 8.53710938 49.63037109 C9.60316406 49.03611328 10.66921875 48.44185547 11.76757812 47.82958984 C12.77949219 47.25853516 13.79140625 46.68748047 14.83398438 46.09912109 C15.76049805 45.57769531 16.68701172 45.05626953 17.64160156 44.51904297 C19.90948116 43.30885354 19.90948116 43.30885354 20.78710938 41.13037109 C17.08017623 39.02373059 13.37131857 36.92050112 9.66210938 34.81787109 C8.61539063 34.22296875 7.56867188 33.62806641 6.49023438 33.01513672 C4.96269531 32.14985352 4.96269531 32.14985352 3.40429688 31.26708984 C2.00606689 30.47371216 2.00606689 30.47371216 0.57958984 29.66430664 C-2.31061491 28.07669023 -5.26347585 26.60507848 -8.21289062 25.13037109 Z " fill="#6640CE" transform="translate(60.212890625,20.86962890625)"/>
</svg>
