<svg width="36" height="32" viewBox="0 0 36 32" fill="none" xmlns="http://www.w3.org/2000/svg">
<path id="Vector" d="M17.8906 31.9937C13.5885 31.9937 9.28639 32.0103 4.98429 31.9895C0.269985 31.9673 0.0280159 31.7495 0.0153544 27.2469C-0.00574813 19.632 0.0280022 12.0171 0.00127231 4.40082C-0.00576187 2.58868 -0.0535862 0.576728 2.22549 0.307542C4.73528 0.0106062 7.64884 -0.767808 9.23153 2.34864C11.1561 6.13943 13.0314 9.95381 14.9953 13.7238C15.6284 14.9393 16.1335 16.4059 18.006 16.313C19.7434 16.2269 20.4201 14.9754 21.07 13.6974C22.9482 10.0065 24.9065 6.35172 26.6439 2.597C28.1535 -0.665132 30.9643 0.0314232 33.4924 0.285345C35.967 0.533717 36.0078 2.56509 35.9994 4.51738C35.9656 12.2405 35.9938 19.965 35.9783 27.6881C35.9712 31.3485 35.3016 31.9715 31.4581 31.9784C26.9351 31.9868 22.4136 31.9812 17.8906 31.9812V31.9923V31.9937Z" fill="url(#paint0_linear_1_4353)"/>
<defs>
<linearGradient id="paint0_linear_1_4353" x1="-0.775301" y1="19.3434" x2="263.282" y2="-28.0792" gradientUnits="userSpaceOnUse">
<stop stop-color="#AE3FFF"/>
<stop offset="0.04" stop-color="#B53DEC"/>
<stop offset="0.12" stop-color="#C838BC"/>
<stop offset="0.23" stop-color="#E53070"/>
<stop offset="0.31" stop-color="#FF2A30"/>
<stop offset="0.37" stop-color="#D73158"/>
<stop offset="0.51" stop-color="#7344BD"/>
<stop offset="0.59" stop-color="#3351FF"/>
<stop offset="1" stop-color="#9186EA"/>
</linearGradient>
</defs>
</svg>
